<svg width="96" height="96" viewBox="0 0 96 96" fill="none" xmlns="http://www.w3.org/2000/svg">
<g clip-path="url(#clip0_121_223)">
<path d="M77.8667 71.2534C70.9198 71.175 64.1847 68.851 58.6677 64.6285C53.1507 60.4061 49.1481 54.5119 47.2577 47.8267C45.3674 41.1414 45.6908 34.024 48.1797 27.5378C50.6687 21.0515 55.1895 15.5447 61.0667 11.8401C58.097 11.0681 55.0417 10.6739 51.9734 10.6667C42.0719 10.6667 32.5761 14.6001 25.5747 21.6014C18.5733 28.6028 14.64 38.0987 14.64 48.0001C14.64 57.9015 18.5733 67.3974 25.5747 74.3987C32.5761 81.4001 42.0719 85.3334 51.9734 85.3334C57.5825 85.3284 63.1165 84.043 68.1537 81.5752C73.1908 79.1075 77.5982 75.5225 81.04 71.0934C79.9856 71.2006 78.9265 71.254 77.8667 71.2534Z" fill="#F9D371"/>
</g>
<defs>
<clipPath id="clip0_121_223">
<rect width="96" height="96" fill="white"/>
</clipPath>
</defs>
</svg>
