<svg width="96" height="96" viewBox="0 0 96 96" fill="none" xmlns="http://www.w3.org/2000/svg">
<g clip-path="url(#clip0_120_14)">
<path d="M42.6667 5.33333C42.6667 5.33333 42.6667 0 48 0C53.3333 0 53.3333 5.33333 53.3333 5.33333V10.6667C53.3333 10.6667 53.3333 16 48 16C42.6667 16 42.6667 10.6667 42.6667 10.6667V5.33333ZM90.6667 42.6667C90.6667 42.6667 96 42.6667 96 48C96 53.3333 90.6667 53.3333 90.6667 53.3333H85.3333C85.3333 53.3333 80 53.3333 80 48C80 42.6667 85.3333 42.6667 85.3333 42.6667H90.6667ZM10.6667 42.6667C10.6667 42.6667 16 42.6667 16 48C16 53.3333 10.6667 53.3333 10.6667 53.3333H5.33333C5.33333 53.3333 0 53.3333 0 48C0 42.6667 5.33333 42.6667 5.33333 42.6667H10.6667ZM24.3227 19.448C24.3227 19.448 28.0933 23.2187 24.3227 26.9893C20.552 30.76 16.7813 26.9893 16.7813 26.9893L13.008 23.2213C13.008 23.2213 9.23733 19.4507 13.008 15.6773C16.7813 11.9067 20.552 15.6773 20.552 15.6773L24.3227 19.448ZM80.3227 75.448C80.3227 75.448 84.0933 79.2187 80.3227 82.9893C76.552 86.76 72.7813 82.9893 72.7813 82.9893L69.0107 79.2187C69.0107 79.2187 65.24 75.448 69.0107 71.6773C72.7813 67.9067 76.552 71.6773 76.552 71.6773L80.3227 75.448ZM79.2213 26.9893C79.2213 26.9893 75.4507 30.76 71.68 26.9893C67.9093 23.2187 71.68 19.448 71.68 19.448L75.4507 15.6773C75.4507 15.6773 79.2213 11.9067 82.992 15.6773C86.7627 19.448 82.992 23.2187 82.992 23.2187L79.2213 26.9893ZM23.2213 82.9893C23.2213 82.9893 19.4507 86.76 15.68 82.9893C11.9093 79.2187 15.68 75.448 15.68 75.448L19.4507 71.6773C19.4507 71.6773 23.2213 67.9067 26.992 71.6773C30.7627 75.448 26.992 79.2187 26.992 79.2187L23.2213 82.9893ZM42.6667 85.3333C42.6667 85.3333 42.6667 80 48 80C53.3333 80 53.3333 85.3333 53.3333 85.3333V90.6667C53.3333 90.6667 53.3333 96 48 96C42.6667 96 42.6667 90.6667 42.6667 90.6667V85.3333Z" fill="#F9D371"/>
<path d="M48 74.6666C62.7276 74.6666 74.6667 62.7275 74.6667 47.9999C74.6667 33.2723 62.7276 21.3333 48 21.3333C33.2724 21.3333 21.3333 33.2723 21.3333 47.9999C21.3333 62.7275 33.2724 74.6666 48 74.6666Z" fill="#F9D371"/>
</g>
<defs>
<clipPath id="clip0_120_14">
<rect width="96" height="96" fill="white"/>
</clipPath>
</defs>
</svg>
