<svg width="96" height="86" viewBox="0 0 96 86" fill="none" xmlns="http://www.w3.org/2000/svg">
<g filter="url(#filter0_b_138_61)">
<path fill-rule="evenodd" clip-rule="evenodd" d="M96 32.9057C96 15.0719 81.5428 0.614746 63.709 0.614746C53.6606 0.614746 44.6842 5.20451 38.7619 12.402C35.3437 10.8837 31.5595 10.0401 27.5782 10.0401C12.3472 10.0401 0 22.3873 0 37.6183C0 52.8493 12.3472 65.1965 27.5782 65.1965C34.1162 65.1965 40.1228 62.9214 44.8495 59.1198C50.1555 62.9438 56.6692 65.1966 63.709 65.1966C81.5428 65.1966 96 50.7395 96 32.9057Z" fill="#F2FBFF" fill-opacity="0.5"/>
</g>
<circle cx="16.5" cy="71.5" r="2.5" fill="#F2FBFF" fill-opacity="0.5"/>
<circle cx="28.5" cy="75.5" r="3.5" fill="#F2FBFF" fill-opacity="0.5"/>
<circle cx="41" cy="70" r="2" fill="#F2FBFF" fill-opacity="0.5"/>
<circle cx="50.5" cy="76.5" r="3.5" fill="#F2FBFF" fill-opacity="0.5"/>
<circle cx="65.5" cy="73.5" r="3.5" fill="#F2FBFF" fill-opacity="0.5"/>
<circle cx="80" cy="79" r="2" fill="#F2FBFF" fill-opacity="0.5"/>
<circle cx="69" cy="84" r="2" fill="#F2FBFF" fill-opacity="0.5"/>
<circle cx="83" cy="67" r="1" fill="#F2FBFF" fill-opacity="0.5"/>
<defs>
<filter id="filter0_b_138_61" x="-10" y="-9.38525" width="116" height="84.5818" filterUnits="userSpaceOnUse" color-interpolation-filters="sRGB">
<feFlood flood-opacity="0" result="BackgroundImageFix"/>
<feGaussianBlur in="BackgroundImageFix" stdDeviation="5"/>
<feComposite in2="SourceAlpha" operator="in" result="effect1_backgroundBlur_138_61"/>
<feBlend mode="normal" in="SourceGraphic" in2="effect1_backgroundBlur_138_61" result="shape"/>
</filter>
</defs>
</svg>
